<mxfile host="app.diagrams.net" modified="2020-08-06T05:50:41.025Z" agent="5.0 (Windows)" etag="1EkfksW1jq9elvUqtJet" version="13.6.0" type="github">
  <diagram id="6a731a19-8d31-9384-78a2-239565b7b9f0" name="Page-1">
    <mxGraphModel dx="2228" dy="905" grid="1" gridSize="10" guides="1" tooltips="1" connect="1" arrows="1" fold="1" page="1" pageScale="1" pageWidth="1169" pageHeight="827" background="#ffffff" math="0" shadow="0">
      <root>
        <mxCell id="0" />
        <mxCell id="1" parent="0" />
        <mxCell id="qPSUUo0MPtotNdNZpXaL-1101" value="" style="whiteSpace=wrap;html=1;rounded=1;sketch=0;strokeColor=#282828;strokeWidth=2;fontColor=#67AB9F;opacity=80;fillColor=#FFCE9F;" vertex="1" parent="1">
          <mxGeometry x="5" y="29" width="1760" height="681" as="geometry" />
        </mxCell>
        <mxCell id="980" value="" style="ellipse;whiteSpace=wrap;html=1;fontFamily=Verdana;fontSize=16;fontColor=#DDDDDD;strokeColor=none;fillColor=#282828;rounded=1;" parent="1" vertex="1">
          <mxGeometry x="30" y="200" width="350" height="350" as="geometry" />
        </mxCell>
        <mxCell id="981" value="" style="ellipse;whiteSpace=wrap;html=1;fontFamily=Verdana;fontSize=16;fontColor=#DDDDDD;strokeColor=none;fillColor=#282828;rounded=1;" parent="1" vertex="1">
          <mxGeometry x="897" y="241" width="350" height="350" as="geometry" />
        </mxCell>
        <mxCell id="984" value="" style="ellipse;whiteSpace=wrap;html=1;fontFamily=Verdana;fontSize=16;fontColor=#DDDDDD;strokeColor=none;fillColor=#282828;rounded=1;" parent="1" vertex="1">
          <mxGeometry x="455" y="341" width="350" height="350" as="geometry" />
        </mxCell>
        <mxCell id="985" value="Data Input &amp;amp; &lt;br&gt;Normalization" style="text;html=1;resizable=0;points=[];autosize=1;align=left;verticalAlign=top;spacingTop=-4;fontSize=24;fontFamily=Verdana;fontColor=#DDDDDD;fontStyle=1;rounded=1;" parent="1" vertex="1">
          <mxGeometry x="136.9999999999999" y="272" width="210" height="60" as="geometry" />
        </mxCell>
        <mxCell id="986" value="1&amp;nbsp;" style="text;html=1;resizable=0;points=[];autosize=1;align=left;verticalAlign=top;spacingTop=-4;fontSize=100;fontFamily=Verdana;fontColor=#F18808;fontStyle=1;rounded=1;" parent="1" vertex="1">
          <mxGeometry x="57" y="189" width="110" height="120" as="geometry" />
        </mxCell>
        <mxCell id="987" value="2" style="text;html=1;resizable=0;points=[];autosize=1;align=left;verticalAlign=top;spacingTop=-4;fontSize=100;fontFamily=Verdana;fontColor=#F18808;fontStyle=1;rounded=1;" parent="1" vertex="1">
          <mxGeometry x="455" y="356" width="74" height="120" as="geometry" />
        </mxCell>
        <mxCell id="988" value="3" style="text;html=1;resizable=0;points=[];autosize=1;align=left;verticalAlign=top;spacingTop=-4;fontSize=100;fontFamily=Verdana;fontColor=#F18808;fontStyle=1;rounded=1;" parent="1" vertex="1">
          <mxGeometry x="897" y="241" width="74" height="120" as="geometry" />
        </mxCell>
        <mxCell id="992" value="Risk-Based Alerting" style="whiteSpace=wrap;html=1;strokeColor=none;fillColor=none;fontFamily=Verdana;fontSize=70;align=left;rounded=1;fontColor=#282828;fontStyle=3" parent="1" vertex="1">
          <mxGeometry x="45" y="59" width="885" height="78" as="geometry" />
        </mxCell>
        <mxCell id="994" value="Risk Analysis" style="text;html=1;resizable=0;points=[];autosize=1;align=left;verticalAlign=top;spacingTop=-4;fontSize=24;fontFamily=Verdana;fontColor=#DDDDDD;fontStyle=1;rounded=1;" parent="1" vertex="1">
          <mxGeometry x="535" y="405" width="190" height="30" as="geometry" />
        </mxCell>
        <mxCell id="995" value="Alerting" style="text;html=1;resizable=0;points=[];autosize=1;align=left;verticalAlign=top;spacingTop=-4;fontSize=24;fontFamily=Verdana;fontColor=#DDDDDD;fontStyle=1;rounded=1;" parent="1" vertex="1">
          <mxGeometry x="1012" y="286" width="120" height="30" as="geometry" />
        </mxCell>
        <mxCell id="998" value="Datamodels, Data Enrichment" style="text;html=1;resizable=0;points=[];autosize=1;align=left;verticalAlign=top;spacingTop=-4;fontSize=16;fontColor=#888888;fontFamily=Verdana;rounded=1;" parent="1" vertex="1">
          <mxGeometry x="106" y="381" width="260" height="20" as="geometry" />
        </mxCell>
        <mxCell id="999" value="Risk-generating detection controls" style="text;html=1;resizable=0;points=[];autosize=1;align=left;verticalAlign=top;spacingTop=-4;fontSize=16;fontColor=#888888;fontFamily=Verdana;rounded=1;" parent="1" vertex="1">
          <mxGeometry x="497" y="491" width="290" height="20" as="geometry" />
        </mxCell>
        <mxCell id="1002" value="Generation of notable events" style="text;html=1;resizable=0;points=[];autosize=1;align=left;verticalAlign=top;spacingTop=-4;fontSize=16;fontColor=#888888;fontFamily=Verdana;rounded=1;" parent="1" vertex="1">
          <mxGeometry x="963" y="380" width="250" height="20" as="geometry" />
        </mxCell>
        <mxCell id="1007" value="" style="endArrow=oval;html=1;fontFamily=Verdana;fontSize=16;fontColor=#DDDDDD;endFill=1;endSize=6;startArrow=oval;startFill=1;strokeWidth=2;movable=1;resizable=1;rotatable=1;deletable=1;editable=1;connectable=1;exitX=0;exitY=0.5;exitDx=0;exitDy=0;edgeStyle=orthogonalEdgeStyle;strokeColor=#666666;entryX=1;entryY=0.5;entryDx=0;entryDy=0;" parent="1" edge="1" target="1017" source="1026">
          <mxGeometry width="50" height="50" relative="1" as="geometry">
            <mxPoint x="601" y="399" as="sourcePoint" />
            <mxPoint x="527" y="251" as="targetPoint" />
          </mxGeometry>
        </mxCell>
        <mxCell id="qPSUUo0MPtotNdNZpXaL-1064" value="" style="group;rounded=1;" vertex="1" connectable="0" parent="1">
          <mxGeometry x="597" y="296" width="66" height="66" as="geometry" />
        </mxCell>
        <mxCell id="1025" value="" style="group;rounded=1;" parent="qPSUUo0MPtotNdNZpXaL-1064" vertex="1" connectable="0">
          <mxGeometry width="66" height="66" as="geometry" />
        </mxCell>
        <mxCell id="1026" value="" style="ellipse;whiteSpace=wrap;html=1;fillColor=none;fontFamily=Verdana;fontSize=16;fontColor=#DDDDDD;strokeColor=#666666;strokeWidth=2;rounded=1;" parent="1025" vertex="1">
          <mxGeometry width="66" height="66" as="geometry" />
        </mxCell>
        <mxCell id="1027" value="" style="ellipse;whiteSpace=wrap;html=1;fillColor=#666666;fontFamily=Verdana;fontSize=16;fontColor=#DDDDDD;strokeColor=none;rounded=1;" parent="1025" vertex="1">
          <mxGeometry x="4" y="4" width="58" height="58" as="geometry" />
        </mxCell>
        <mxCell id="1050" value="" style="ellipse;whiteSpace=wrap;html=1;dashed=1;strokeColor=none;strokeWidth=1;fillColor=#282828;fontFamily=Verdana;fontSize=16;fontColor=#DDDDDD;rounded=1;" parent="qPSUUo0MPtotNdNZpXaL-1064" vertex="1">
          <mxGeometry x="23" y="22" width="5" height="5" as="geometry" />
        </mxCell>
        <mxCell id="1051" value="" style="ellipse;whiteSpace=wrap;html=1;dashed=1;strokeColor=none;strokeWidth=1;fillColor=#282828;fontFamily=Verdana;fontSize=16;fontColor=#DDDDDD;rounded=1;" parent="qPSUUo0MPtotNdNZpXaL-1064" vertex="1">
          <mxGeometry x="45" y="26" width="5" height="5" as="geometry" />
        </mxCell>
        <mxCell id="1052" value="" style="ellipse;whiteSpace=wrap;html=1;dashed=1;strokeColor=none;strokeWidth=1;fillColor=#282828;fontFamily=Verdana;fontSize=16;fontColor=#DDDDDD;rounded=1;" parent="qPSUUo0MPtotNdNZpXaL-1064" vertex="1">
          <mxGeometry x="38" y="39" width="5" height="5" as="geometry" />
        </mxCell>
        <mxCell id="1053" value="" style="ellipse;whiteSpace=wrap;html=1;dashed=1;strokeColor=none;strokeWidth=1;fillColor=#282828;fontFamily=Verdana;fontSize=16;fontColor=#DDDDDD;rounded=1;" parent="qPSUUo0MPtotNdNZpXaL-1064" vertex="1">
          <mxGeometry x="16" y="35" width="5" height="5" as="geometry" />
        </mxCell>
        <mxCell id="1054" value="" style="shape=hexagon;perimeter=hexagonPerimeter;whiteSpace=wrap;html=1;strokeColor=#282828;strokeWidth=1;fillColor=none;fontFamily=Verdana;fontSize=16;fontColor=#DDDDDD;direction=south;rounded=1;" parent="qPSUUo0MPtotNdNZpXaL-1064" vertex="1">
          <mxGeometry x="18" y="24" width="15" height="18" as="geometry" />
        </mxCell>
        <mxCell id="1055" value="" style="shape=hexagon;perimeter=hexagonPerimeter;whiteSpace=wrap;html=1;strokeColor=#282828;strokeWidth=1;fillColor=none;fontFamily=Verdana;fontSize=16;fontColor=#DDDDDD;direction=south;rounded=1;" parent="qPSUUo0MPtotNdNZpXaL-1064" vertex="1">
          <mxGeometry x="33" y="24" width="15" height="18" as="geometry" />
        </mxCell>
        <mxCell id="1056" value="" style="endArrow=none;html=1;strokeColor=#282828;strokeWidth=1;fontFamily=Verdana;fontSize=16;fontColor=#DDDDDD;endFill=0;" parent="qPSUUo0MPtotNdNZpXaL-1064" edge="1">
          <mxGeometry width="50" height="50" relative="1" as="geometry">
            <mxPoint x="40" y="16" as="sourcePoint" />
            <mxPoint x="40.239935512433476" y="24.157807422738188" as="targetPoint" />
          </mxGeometry>
        </mxCell>
        <mxCell id="1057" value="" style="endArrow=none;html=1;strokeColor=#282828;strokeWidth=1;fontFamily=Verdana;fontSize=16;fontColor=#DDDDDD;endFill=0;" parent="qPSUUo0MPtotNdNZpXaL-1064" edge="1">
          <mxGeometry width="50" height="50" relative="1" as="geometry">
            <mxPoint x="26" y="42" as="sourcePoint" />
            <mxPoint x="26" y="50" as="targetPoint" />
          </mxGeometry>
        </mxCell>
        <mxCell id="1058" value="" style="endArrow=none;html=1;strokeColor=#282828;strokeWidth=1;fontFamily=Verdana;fontSize=16;fontColor=#DDDDDD;endFill=0;" parent="qPSUUo0MPtotNdNZpXaL-1064" edge="1">
          <mxGeometry width="50" height="50" relative="1" as="geometry">
            <mxPoint x="48" y="37" as="sourcePoint" />
            <mxPoint x="54" y="41" as="targetPoint" />
          </mxGeometry>
        </mxCell>
        <mxCell id="1059" value="" style="endArrow=none;html=1;strokeColor=#282828;strokeWidth=1;fontFamily=Verdana;fontSize=16;fontColor=#DDDDDD;endFill=0;" parent="qPSUUo0MPtotNdNZpXaL-1064" edge="1">
          <mxGeometry width="50" height="50" relative="1" as="geometry">
            <mxPoint x="12" y="25" as="sourcePoint" />
            <mxPoint x="18" y="29" as="targetPoint" />
          </mxGeometry>
        </mxCell>
        <mxCell id="qPSUUo0MPtotNdNZpXaL-1066" value="" style="group;rounded=1;" vertex="1" connectable="0" parent="1">
          <mxGeometry x="1039" y="210" width="66" height="66" as="geometry" />
        </mxCell>
        <mxCell id="1019" value="" style="group;rounded=1;" parent="qPSUUo0MPtotNdNZpXaL-1066" vertex="1" connectable="0">
          <mxGeometry width="66" height="66" as="geometry" />
        </mxCell>
        <mxCell id="1020" value="" style="ellipse;whiteSpace=wrap;html=1;fillColor=none;fontFamily=Verdana;fontSize=16;fontColor=#DDDDDD;strokeColor=#666666;strokeWidth=2;rounded=1;" parent="1019" vertex="1">
          <mxGeometry width="66" height="66" as="geometry" />
        </mxCell>
        <mxCell id="1021" value="" style="ellipse;whiteSpace=wrap;html=1;fillColor=#666666;fontFamily=Verdana;fontSize=16;fontColor=#DDDDDD;strokeColor=none;rounded=1;" parent="1019" vertex="1">
          <mxGeometry x="4" y="4" width="58" height="58" as="geometry" />
        </mxCell>
        <mxCell id="1041" value="" style="html=1;verticalLabelPosition=bottom;labelBackgroundColor=#ffffff;verticalAlign=top;strokeWidth=2;strokeColor=#282828;fillColor=none;shadow=0;dashed=0;shape=mxgraph.ios7.icons.eye;fontFamily=Verdana;fontSize=16;fontColor=#DDDDDD;rounded=1;" parent="qPSUUo0MPtotNdNZpXaL-1066" vertex="1">
          <mxGeometry x="11" y="20.5" width="44" height="25" as="geometry" />
        </mxCell>
        <mxCell id="1042" value="" style="ellipse;whiteSpace=wrap;html=1;dashed=1;strokeColor=none;strokeWidth=1;fillColor=#282828;fontFamily=Verdana;fontSize=16;fontColor=#DDDDDD;rounded=1;" parent="qPSUUo0MPtotNdNZpXaL-1066" vertex="1">
          <mxGeometry x="22" y="22" width="22" height="22" as="geometry" />
        </mxCell>
        <mxCell id="1043" value="" style="ellipse;whiteSpace=wrap;html=1;dashed=1;strokeColor=none;strokeWidth=1;fillColor=#666666;fontFamily=Verdana;fontSize=16;fontColor=#DDDDDD;rounded=1;" parent="qPSUUo0MPtotNdNZpXaL-1066" vertex="1">
          <mxGeometry x="24" y="24" width="18" height="18" as="geometry" />
        </mxCell>
        <mxCell id="1044" value="" style="ellipse;whiteSpace=wrap;html=1;dashed=1;strokeColor=none;strokeWidth=1;fillColor=#282828;fontFamily=Verdana;fontSize=16;fontColor=#DDDDDD;rounded=1;" parent="qPSUUo0MPtotNdNZpXaL-1066" vertex="1">
          <mxGeometry x="25.5" y="25.5" width="15" height="15" as="geometry" />
        </mxCell>
        <mxCell id="qPSUUo0MPtotNdNZpXaL-1068" value="" style="endArrow=oval;html=1;fontFamily=Verdana;fontSize=16;fontColor=#DDDDDD;endFill=1;endSize=6;startArrow=oval;startFill=1;strokeWidth=2;movable=1;resizable=1;rotatable=1;deletable=1;editable=1;connectable=1;exitX=0;exitY=0.5;exitDx=0;exitDy=0;edgeStyle=orthogonalEdgeStyle;strokeColor=#666666;entryX=1;entryY=0.5;entryDx=0;entryDy=0;" edge="1" parent="1" source="1020" target="1027">
          <mxGeometry width="50" height="50" relative="1" as="geometry">
            <mxPoint x="601" y="399" as="sourcePoint" />
            <mxPoint x="663" y="400" as="targetPoint" />
          </mxGeometry>
        </mxCell>
        <mxCell id="qPSUUo0MPtotNdNZpXaL-1070" value="" style="ellipse;whiteSpace=wrap;html=1;fontFamily=Verdana;fontSize=16;fontColor=#DDDDDD;strokeColor=none;fillColor=#282828;rounded=1;" vertex="1" parent="1">
          <mxGeometry x="1324" y="337" width="350" height="350" as="geometry" />
        </mxCell>
        <mxCell id="qPSUUo0MPtotNdNZpXaL-1071" value="4" style="text;html=1;resizable=0;points=[];autosize=1;align=left;verticalAlign=top;spacingTop=-4;fontSize=100;fontFamily=Verdana;fontColor=#F18808;fontStyle=1;rounded=1;" vertex="1" parent="1">
          <mxGeometry x="1320" y="349" width="90" height="120" as="geometry" />
        </mxCell>
        <mxCell id="qPSUUo0MPtotNdNZpXaL-1085" value="" style="group" vertex="1" connectable="0" parent="1">
          <mxGeometry x="1464" y="295" width="66" height="66" as="geometry" />
        </mxCell>
        <mxCell id="qPSUUo0MPtotNdNZpXaL-1073" value="" style="group;rounded=1;" vertex="1" connectable="0" parent="qPSUUo0MPtotNdNZpXaL-1085">
          <mxGeometry width="66" height="66" as="geometry" />
        </mxCell>
        <mxCell id="qPSUUo0MPtotNdNZpXaL-1074" value="" style="group;rounded=1;" vertex="1" connectable="0" parent="qPSUUo0MPtotNdNZpXaL-1073">
          <mxGeometry width="66" height="66" as="geometry" />
        </mxCell>
        <mxCell id="qPSUUo0MPtotNdNZpXaL-1075" value="" style="ellipse;whiteSpace=wrap;html=1;fillColor=none;fontFamily=Verdana;fontSize=16;fontColor=#DDDDDD;strokeColor=#666666;strokeWidth=2;rounded=1;" vertex="1" parent="qPSUUo0MPtotNdNZpXaL-1074">
          <mxGeometry width="66" height="66" as="geometry" />
        </mxCell>
        <mxCell id="qPSUUo0MPtotNdNZpXaL-1076" value="" style="ellipse;whiteSpace=wrap;html=1;fillColor=#666666;fontFamily=Verdana;fontSize=16;fontColor=#DDDDDD;strokeColor=none;rounded=1;" vertex="1" parent="qPSUUo0MPtotNdNZpXaL-1074">
          <mxGeometry x="4" y="4" width="58" height="58" as="geometry" />
        </mxCell>
        <mxCell id="qPSUUo0MPtotNdNZpXaL-1095" value="" style="group" vertex="1" connectable="0" parent="qPSUUo0MPtotNdNZpXaL-1074">
          <mxGeometry x="12" y="15" width="37" height="39" as="geometry" />
        </mxCell>
        <mxCell id="qPSUUo0MPtotNdNZpXaL-1090" value="" style="ellipse;whiteSpace=wrap;html=1;aspect=fixed;rounded=1;sketch=0;fontColor=#67AB9F;opacity=80;fillColor=none;strokeColor=#282828;strokeWidth=2;" vertex="1" parent="qPSUUo0MPtotNdNZpXaL-1095">
          <mxGeometry width="25.384615384615387" height="25.384615384615387" as="geometry" />
        </mxCell>
        <mxCell id="qPSUUo0MPtotNdNZpXaL-1091" value="" style="ellipse;whiteSpace=wrap;html=1;aspect=fixed;rounded=1;sketch=0;fontColor=#67AB9F;opacity=80;fillColor=none;strokeColor=#282828;strokeWidth=2;" vertex="1" parent="qPSUUo0MPtotNdNZpXaL-1095">
          <mxGeometry x="3.269230769230769" y="3.4821428571428577" width="17.76923076923077" height="17.76923076923077" as="geometry" />
        </mxCell>
        <mxCell id="qPSUUo0MPtotNdNZpXaL-1094" value="" style="shape=link;html=1;fontColor=#67AB9F;exitX=1;exitY=1;exitDx=0;exitDy=0;strokeColor=#282828;strokeWidth=2;" edge="1" parent="qPSUUo0MPtotNdNZpXaL-1095" source="qPSUUo0MPtotNdNZpXaL-1090">
          <mxGeometry width="100" relative="1" as="geometry">
            <mxPoint x="88.23076923076923" y="-5.571428571428571" as="sourcePoint" />
            <mxPoint x="37" y="39" as="targetPoint" />
          </mxGeometry>
        </mxCell>
        <mxCell id="qPSUUo0MPtotNdNZpXaL-1086" value="" style="endArrow=oval;html=1;fontFamily=Verdana;fontSize=16;fontColor=#DDDDDD;endFill=1;endSize=6;startArrow=oval;startFill=1;strokeWidth=2;movable=1;resizable=1;rotatable=1;deletable=1;editable=1;connectable=1;exitX=0;exitY=0.5;exitDx=0;exitDy=0;edgeStyle=orthogonalEdgeStyle;strokeColor=#666666;entryX=1;entryY=0.5;entryDx=0;entryDy=0;" edge="1" parent="1" source="qPSUUo0MPtotNdNZpXaL-1075" target="1020">
          <mxGeometry width="50" height="50" relative="1" as="geometry">
            <mxPoint x="1038.9999999999814" y="239" as="sourcePoint" />
            <mxPoint x="659.0000000000227" y="359" as="targetPoint" />
          </mxGeometry>
        </mxCell>
        <mxCell id="qPSUUo0MPtotNdNZpXaL-1087" value="" style="group" vertex="1" connectable="0" parent="1">
          <mxGeometry x="257" y="194" width="66" height="66" as="geometry" />
        </mxCell>
        <mxCell id="1016" value="" style="group;rounded=1;" parent="qPSUUo0MPtotNdNZpXaL-1087" vertex="1" connectable="0">
          <mxGeometry width="66" height="66" as="geometry" />
        </mxCell>
        <mxCell id="1017" value="" style="ellipse;whiteSpace=wrap;html=1;fillColor=none;fontFamily=Verdana;fontSize=16;fontColor=#DDDDDD;strokeColor=#666666;strokeWidth=2;rounded=1;" parent="1016" vertex="1">
          <mxGeometry width="66" height="66" as="geometry" />
        </mxCell>
        <mxCell id="1018" value="" style="ellipse;whiteSpace=wrap;html=1;fillColor=#666666;fontFamily=Verdana;fontSize=16;fontColor=#DDDDDD;strokeColor=none;rounded=1;" parent="1016" vertex="1">
          <mxGeometry x="4" y="4" width="58" height="58" as="geometry" />
        </mxCell>
        <mxCell id="1045" value="" style="endArrow=none;html=1;strokeColor=#282828;strokeWidth=3;fontFamily=Verdana;fontSize=16;fontColor=#DDDDDD;endFill=0;" parent="qPSUUo0MPtotNdNZpXaL-1087" edge="1">
          <mxGeometry x="13" y="33" width="50" height="50" as="geometry">
            <mxPoint x="12" y="33" as="sourcePoint" />
            <mxPoint x="24" y="33" as="targetPoint" />
          </mxGeometry>
        </mxCell>
        <mxCell id="1046" value="" style="endArrow=none;html=1;strokeColor=#282828;strokeWidth=3;fontFamily=Verdana;fontSize=16;fontColor=#DDDDDD;endFill=0;" parent="qPSUUo0MPtotNdNZpXaL-1087" edge="1">
          <mxGeometry x="30" y="36" width="50" height="50" as="geometry">
            <mxPoint x="29" y="36" as="sourcePoint" />
            <mxPoint x="41" y="36" as="targetPoint" />
          </mxGeometry>
        </mxCell>
        <mxCell id="1047" value="" style="endArrow=none;html=1;strokeColor=#282828;strokeWidth=3;fontFamily=Verdana;fontSize=16;fontColor=#DDDDDD;endFill=0;" parent="qPSUUo0MPtotNdNZpXaL-1087" edge="1">
          <mxGeometry x="30" y="30" width="50" height="50" as="geometry">
            <mxPoint x="29" y="30" as="sourcePoint" />
            <mxPoint x="41" y="30" as="targetPoint" />
          </mxGeometry>
        </mxCell>
        <mxCell id="1048" value="" style="endArrow=none;html=1;strokeColor=#282828;strokeWidth=3;fontFamily=Verdana;fontSize=16;fontColor=#DDDDDD;endFill=0;" parent="qPSUUo0MPtotNdNZpXaL-1087" edge="1">
          <mxGeometry x="47" y="34" width="50" height="50" as="geometry">
            <mxPoint x="46" y="34" as="sourcePoint" />
            <mxPoint x="58" y="34" as="targetPoint" />
          </mxGeometry>
        </mxCell>
        <mxCell id="1049" value="" style="endArrow=none;html=1;strokeColor=#282828;strokeWidth=3;fontFamily=Verdana;fontSize=16;fontColor=#DDDDDD;endFill=0;rotation=0;" parent="qPSUUo0MPtotNdNZpXaL-1087" edge="1">
          <mxGeometry x="46" y="34" width="50" height="50" as="geometry">
            <mxPoint x="52" y="28" as="sourcePoint" />
            <mxPoint x="52" y="39" as="targetPoint" />
          </mxGeometry>
        </mxCell>
        <mxCell id="qPSUUo0MPtotNdNZpXaL-1088" value="&lt;div&gt;Incident &lt;br&gt;&lt;/div&gt;&lt;div&gt;Response&lt;/div&gt;" style="text;html=1;resizable=0;points=[];autosize=1;align=left;verticalAlign=top;spacingTop=-4;fontSize=24;fontFamily=Verdana;fontColor=#DDDDDD;fontStyle=1;rounded=1;" vertex="1" parent="1">
          <mxGeometry x="1427" y="390" width="140" height="60" as="geometry" />
        </mxCell>
      </root>
    </mxGraphModel>
  </diagram>
</mxfile>
